<svg width="68" height="81" viewBox="0 0 68 81" fill="none" xmlns="http://www.w3.org/2000/svg">
<path d="M30.482 61.56C30.482 63.8 29.7887 65.6133 28.402 67C27.0154 68.3333 25.202 69 22.962 69H17.202C14.962 69 13.1487 68.3333 11.762 67C10.3754 65.6133 9.68203 63.8 9.68203 61.56V20.44C9.68203 18.2 10.3754 16.4133 11.762 15.08C13.1487 13.6933 14.962 13 17.202 13H22.962C25.202 13 27.0154 13.6933 28.402 15.08C29.7887 16.4133 30.482 18.2 30.482 20.44V33.24H22.882V20.84C22.882 20.5733 22.7487 20.44 22.482 20.44H17.682C17.4154 20.44 17.282 20.5733 17.282 20.84V61.16C17.282 61.4267 17.4154 61.56 17.682 61.56H22.482C22.7487 61.56 22.882 61.4267 22.882 61.16V44.6H19.762L20.402 37.16H30.482V61.56ZM33.6664 61.56H41.1064V69H33.6664V61.56ZM48.2914 67.14C48.2914 67.7 48.1181 68.1533 47.7714 68.5C47.4247 68.8333 46.9714 69 46.4114 69H43.0914V56.86H42.7914L42.9914 55H46.4114C46.9714 55 47.4247 55.1733 47.7714 55.52C48.1181 55.8533 48.2914 56.3 48.2914 56.86V67.14ZM46.2914 56.86H44.9914V67.14H46.2914C46.3581 67.14 46.3914 67.1067 46.3914 67.04V56.96C46.3914 56.8933 46.3581 56.86 46.2914 56.86ZM53.7252 67.14L53.5652 69H49.1852V56.86H48.8852L49.0852 55H53.7252L53.5252 56.86H51.0852V61.06H53.3252L53.1252 62.92H51.0852V67.14H53.7252ZM58.0172 55H59.9172L58.6772 69H55.3572L54.1172 55H56.0172L57.0172 66.06L58.0172 55Z" fill="#C9ADA7"/>
</svg>
